<?xml version="1.0" encoding="iso-8859-1"?>
<!-- Generator: Adobe Illustrator 19.0.0, SVG Export Plug-In . SVG Version: 6.00 Build 0)  -->
<svg version="1.1" id="Layer_1" xmlns="http://www.w3.org/2000/svg" xmlns:xlink="http://www.w3.org/1999/xlink" x="0px" y="0px"
	 viewBox="0 0 351.785 351.785" style="enable-background:new 0 0 351.785 351.785;" xml:space="preserve">
<g>
	<g>
		<path style="fill:#C3C6C8;" d="M318.686,70.148c0-11.238-9.193-20.432-20.431-20.432H53.531c-11.236,0-20.432,9.193-20.432,20.432
			v152.965c0,11.238,9.195,20.432,20.432,20.432h244.724c11.237,0,20.431-9.193,20.431-20.432V70.148z"/>
		<path style="fill:#E8E8E8;" d="M175.893,125.965L33.1,217.311v5.803c0,11.238,9.195,20.432,20.432,20.432h244.724
			c11.237,0,20.431-9.193,20.431-20.432v-5.803L175.893,125.965z"/>
		<path style="fill:#E8E8E8;" d="M175.893,167.299l142.793-91.35v-5.801c0-11.238-9.193-20.432-20.431-20.432H53.531
			c-11.236,0-20.432,9.193-20.432,20.432v5.801L175.893,167.299z"/>
		<path style="fill:#005CB9;" d="M317.589,63.576l-141.696,90.645L34.196,63.576c-0.707,2.066-1.097,4.275-1.097,6.572v5.801
			l142.793,91.35l142.793-91.35v-5.801C318.686,67.852,318.296,65.643,317.589,63.576z"/>
	</g>
	<path style="fill:#333E48;" d="M330.035,178.955h-27.12c-11.963,0-21.751,9.787-21.751,21.75v26.848H70.621v-26.848
		c0-11.963-9.788-21.75-21.751-21.75H21.75c-11.962,0-21.75,9.787-21.75,21.75v79.613c0,11.963,9.788,21.75,21.75,21.75h308.285
		c11.963,0,21.75-9.787,21.75-21.75v-79.613C351.785,188.742,341.998,178.955,330.035,178.955z"/>
</g>
<g>
</g>
<g>
</g>
<g>
</g>
<g>
</g>
<g>
</g>
<g>
</g>
<g>
</g>
<g>
</g>
<g>
</g>
<g>
</g>
<g>
</g>
<g>
</g>
<g>
</g>
<g>
</g>
<g>
</g>
</svg>
